<?xml version="1.0" encoding="UTF-8" standalone="no"?>
<!DOCTYPE svg PUBLIC "-//W3C//DTD SVG 1.1//EN" "http://www.w3.org/Graphics/SVG/1.1/DTD/svg11.dtd">
<svg width="100%" height="100%" viewBox="0 0 800 800" version="1.1" xmlns="http://www.w3.org/2000/svg" xmlns:xlink="http://www.w3.org/1999/xlink" xml:space="preserve" xmlns:serif="http://www.serif.com/" style="fill-rule:evenodd;clip-rule:evenodd;stroke-linejoin:round;stroke-miterlimit:2;">
    <ellipse id="Background" cx="399" cy="398.5" rx="400" ry="399.5" style="fill:rgb(53,53,53);"/>
    <g id="Frame" transform="matrix(1.33373,0,0,1.33373,-129.081,-144.179)">
        <path d="M498.468,250.1L482.011,251.819L480.999,242.133L546.924,235.243L547.936,244.93L514.102,248.466L396.789,455.915L386.31,462.895L291.381,260.819L243.95,260.819L243.95,247.819L323.026,247.819L323.026,260.819L305.139,260.819L328.448,310.438L464.346,310.438L498.468,250.1ZM332.447,318.951L390.114,441.706L459.532,318.951L332.447,318.951Z" style="fill:white;"/>
    </g>
    <g id="Wheels" transform="matrix(0.99251,0,0,0.99251,-2.9751,55.1038)">
        <g transform="matrix(1,0,0,1,23.0016,0)">
            <path d="M333.5,398.5C333.5,483.771 264.271,553 179,553C93.729,553 24.5,483.771 24.5,398.5C24.5,313.229 93.729,244 179,244C205.34,244 230.15,250.606 251.847,262.264L171.9,391.223L183.639,398.5L333.5,398.5Z" style="fill:white;"/>
        </g>
        <g transform="matrix(1,0,0,1,23.0016,0)">
            <path d="M263.708,269.344C302.12,294.566 328.609,336.455 332.852,384.689L192.201,384.689L263.708,269.344Z" style="fill:white;"/>
        </g>
        <g transform="matrix(0.989242,0.14629,-0.14629,0.989242,489.221,-21.8987)">
            <path d="M96.807,267.73C120.607,252.685 148.797,244 179,244C264.271,244 333.5,313.229 333.5,398.5C333.5,483.771 264.271,553 179,553C93.729,553 24.5,483.771 24.5,398.5C24.5,348.412 48.387,303.859 85.395,275.645L190.415,394.953L199.086,386.279L96.807,267.73Z" style="fill:white;"/>
        </g>
    </g>
</svg>
