<?xml version="1.0" encoding="UTF-8" standalone="no"?>
<!DOCTYPE svg PUBLIC "-//W3C//DTD SVG 1.1//EN" "http://www.w3.org/Graphics/SVG/1.1/DTD/svg11.dtd">
<svg width="100%" height="100%" viewBox="0 0 771 596" version="1.1" xmlns="http://www.w3.org/2000/svg" xmlns:xlink="http://www.w3.org/1999/xlink" xml:space="preserve" xmlns:serif="http://www.serif.com/" style="fill-rule:evenodd;clip-rule:evenodd;stroke-linecap:round;stroke-linejoin:round;stroke-miterlimit:1.5;">
    <g transform="matrix(1,0,0,1,-13.401,-1.5304)">
        <g transform="matrix(3.00784,0,0,3.00784,-724.929,-508.204)">
            <path d="M325.677,308.756C277.973,296.063 246,272.189 246,242C246,202.262 303.131,170 373.5,170C443.869,170 501,202.262 501,242C501,272.189 466.027,295.063 421.328,308.755C395.185,332.291 375.648,367 373.5,367C371.353,367 351.113,333.35 325.677,308.756Z" style="fill:rgb(65,216,85);stroke:black;stroke-opacity:0.68;stroke-width:1.06px;"/>
        </g>
        <g transform="matrix(2.63039,0,0,3.00609,-562.907,-537.841)">
            <ellipse cx="365.5" cy="251.5" rx="127.5" ry="60.5" style="fill:rgb(65,216,85);"/>
        </g>
        <g transform="matrix(3.00784,0,0,3.00784,-724.929,-508.204)">
            <g transform="matrix(1.29013,0,0,1.87018,-140.521,-248.486)">
                <path d="M352.5,234C374.629,230.847 393,246.546 393,262C393,277.454 374.74,292.239 352.5,290C334.758,288.214 312.388,275.174 312,262C311.599,248.385 334.196,236.608 352.5,234Z" style="fill:white;"/>
            </g>
            <g transform="matrix(-1.29013,-1.57995e-16,2.29031e-16,-1.87018,887.513,731.147)">
                <path d="M352.5,234C374.629,230.847 393,246.546 393,262C393,277.454 374.74,292.239 352.5,290C334.758,288.214 312.388,275.174 312,262C311.599,248.385 334.196,236.608 352.5,234Z" style="fill:white;"/>
            </g>
        </g>
        <g transform="matrix(1.94138,0,0,1.94138,-601.312,-257.827)">
            <g transform="matrix(0.620946,0,0,0.57483,247.929,34.4481)">
                <text x="552px" y="296px" style="font-family:'Montserrat-Regular', 'Montserrat';font-size:67.01px;fill-opacity:0.9;">P</text>
            </g>
            <circle cx="604.087" cy="191.116" r="20.884" style="fill-opacity:0;stroke:black;stroke-width:1.65px;"/>
        </g>
        <g transform="matrix(0.439129,0,0,0.439129,43.6835,-19.3989)">
            <g transform="matrix(0.566937,0,0,0.566937,196.526,76.2686)">
                <path d="M498.468,250.1L482.011,251.819L480.999,242.133L546.924,235.243L547.936,244.93L514.102,248.466L396.789,455.915L386.31,462.895L291.381,260.819L243.95,260.819L243.95,247.819L323.026,247.819L323.026,260.819L305.139,260.819L328.448,310.438L464.346,310.438L498.468,250.1ZM332.447,318.951L390.114,441.706L459.532,318.951L332.447,318.951Z" style="fill-opacity:0.79;"/>
            </g>
            <g transform="matrix(0.421892,0,0,0.421892,259.834,160.979)">
                <path d="M333.5,398.5C333.5,483.771 264.271,553 179,553C93.729,553 24.5,483.771 24.5,398.5C24.5,313.229 93.729,244 179,244C205.34,244 230.15,250.606 251.847,262.264L171.9,391.223L183.639,398.5L333.5,398.5Z" style="fill-opacity:0.79;"/>
            </g>
            <g transform="matrix(0.421892,0,0,0.421892,259.834,160.979)">
                <path d="M263.708,269.344C302.12,294.566 328.609,336.455 332.852,384.689L192.201,384.689L263.708,269.344Z" style="fill-opacity:0.79;"/>
            </g>
            <g transform="matrix(0.417354,0.0617186,-0.0617186,0.417354,456.529,151.74)">
                <path d="M96.807,267.73C120.607,252.685 148.797,244 179,244C264.271,244 333.5,313.229 333.5,398.5C333.5,483.771 264.271,553 179,553C93.729,553 24.5,483.771 24.5,398.5C24.5,348.412 48.387,303.859 85.395,275.645L190.415,394.953L199.086,386.279L96.807,267.73Z" style="fill-opacity:0.79;"/>
            </g>
        </g>
    </g>
</svg>
