<?xml version="1.0" encoding="UTF-8" standalone="no"?>
<!DOCTYPE svg PUBLIC "-//W3C//DTD SVG 1.1//EN" "http://www.w3.org/Graphics/SVG/1.1/DTD/svg11.dtd">
<svg width="100%" height="100%" viewBox="0 0 800 608" version="1.1" xmlns="http://www.w3.org/2000/svg" xmlns:xlink="http://www.w3.org/1999/xlink" xml:space="preserve" xmlns:serif="http://www.serif.com/" style="fill-rule:evenodd;clip-rule:evenodd;stroke-linecap:round;stroke-linejoin:round;stroke-miterlimit:1.5;">
    <g transform="matrix(1,0,0,1,0.0891089,0.0891089)">
        <g transform="matrix(0.978697,0,0,0.98495,8.0213,9)">
            <path d="M239.907,479L192.6,479C86.853,479 1,393.147 1,287.4L1,191.6C1,85.853 86.853,0 192.6,0L607.4,0C713.147,0 799,85.853 799,191.6L799,287.4C799,393.147 713.147,479 607.4,479L560.093,479C503.364,512.941 448.436,553.743 400,598C351.564,553.743 296.636,512.941 239.907,479Z" style="fill:rgb(65,216,85);stroke:rgb(45,45,45);stroke-width:18.51px;"/>
        </g>
        <g transform="matrix(0.806492,0,0,0.57666,77.3065,77.3669)">
            <path d="M800,172.71C800,76.837 744.345,-1 675.793,-1L442.487,-1C442.487,-1 414.273,39.249 399.5,39.249C384.727,39.249 353.847,-1 353.847,-1L123.207,-1C54.655,-1 -1,76.837 -1,172.71L-1,424.29C-1,520.163 54.655,598 123.207,598L276.126,594.168C276.126,594.168 382.967,748.505 399.5,748.505C416.033,748.505 524.114,594.168 524.114,594.168L675.793,598C744.345,598 800,520.163 800,424.29L800,172.71Z" style="fill:white;stroke:rgb(28,27,27);stroke-width:7.05px;"/>
        </g>
        <g transform="matrix(2.24509,0,0,2.24509,-796.23,-292.655)">
            <g transform="matrix(0.620946,0,0,0.57483,247.929,34.4481)">
                <text x="552px" y="296px" style="font-family:'Montserrat-Regular', 'Montserrat';font-size:67.01px;fill-opacity:0.9;">P</text>
            </g>
            <circle cx="604.087" cy="191.116" r="20.884" style="fill-opacity:0;stroke:rgb(32,32,32);stroke-width:1.42px;"/>
        </g>
        <g transform="matrix(0.507826,0,0,0.507826,9.60988,-16.9276)">
            <g transform="matrix(0.574428,0,0,0.566937,194.698,76.2686)">
                <path d="M498.468,250.1L482.011,251.819L480.999,242.133L546.924,235.243L547.936,244.93L514.102,248.466L396.789,455.915L386.31,462.895L291.381,260.819L243.95,260.819L243.95,247.819L323.026,247.819L323.026,260.819L305.139,260.819L328.448,310.438L464.346,310.438L498.468,250.1ZM332.447,318.951L390.114,441.706L459.532,318.951L332.447,318.951Z" style="fill-opacity:0.79;stroke:rgb(32,32,32);stroke-opacity:0.88;stroke-width:8.03px;stroke-linecap:butt;stroke-miterlimit:2;"/>
            </g>
            <g transform="matrix(0.421892,0,0,0.421892,259.834,160.979)">
                <path d="M333.5,398.5C333.5,483.771 264.271,553 179,553C93.729,553 24.5,483.771 24.5,398.5C24.5,313.229 93.729,244 179,244C205.34,244 230.15,250.606 251.847,262.264L171.9,391.223L183.639,398.5L333.5,398.5Z" style="fill-opacity:0.79;"/>
            </g>
            <g transform="matrix(0.421892,0,0,0.421892,259.834,160.979)">
                <path d="M263.708,269.344C302.12,294.566 328.609,336.455 332.852,384.689L192.201,384.689L263.708,269.344Z" style="fill-opacity:0.79;"/>
            </g>
            <g transform="matrix(0.417354,0.0617186,-0.0617186,0.417354,456.529,151.74)">
                <path d="M96.807,267.73C120.607,252.685 148.797,244 179,244C264.271,244 333.5,313.229 333.5,398.5C333.5,483.771 264.271,553 179,553C93.729,553 24.5,483.771 24.5,398.5C24.5,348.412 48.387,303.859 85.395,275.645L190.415,394.953L199.086,386.279L96.807,267.73Z" style="fill-opacity:0.79;"/>
            </g>
        </g>
    </g>
</svg>
